<svg xmlns="http://www.w3.org/2000/svg" viewBox="0 0 24 24" width="20" height="20"><path fill="#339933" d="M11.998 24c-.321 0-.641-.084-.922-.247l-2.936-1.737c-.438-.245-.224-.332-.08-.383.585-.203.703-.25 1.328-.604.065-.037.151-.023.218.017l2.256 1.339a.29.29 0 00.272 0l8.795-5.076a.277.277 0 00.134-.238V6.921a.28.28 0 00-.137-.242L12.137 1.6a.27.27 0 00-.27 0L3.077 6.68a.281.281 0 00-.138.24v10.15c0 .099.053.19.137.236l2.409 1.392c1.307.654 2.108-.116 2.108-.89V7.787c0-.142.114-.253.256-.253h1.115c.139 0 .255.112.255.253v10.021c0 1.745-.95 2.745-2.604 2.745-.508 0-.909 0-2.026-.551L2.28 18.675a1.857 1.857 0 01-.922-1.604V6.921c0-.659.353-1.275.922-1.603L11.076.242a1.932 1.932 0 011.848 0l8.794 5.076c.57.329.924.944.924 1.603v10.15a1.86 1.86 0 01-.924 1.604l-8.794 5.076a1.856 1.856 0 01-.926.249zm2.722-6.967c-3.857 0-4.664-1.77-4.664-3.256 0-.142.114-.253.254-.253h1.137c.126 0 .232.091.252.214.172 1.161.683 1.747 3.021 1.747 1.858 0 2.65-.42 2.65-1.406 0-.568-.225-1.009-3.112-1.278-2.413-.225-3.906-.772-3.906-2.704 0-1.782 1.502-2.843 4.021-2.843 2.828 0 4.226.981 4.404 3.087a.256.256 0 01-.066.194.258.258 0 00-.188.081h-1.146a.252.252 0 01-.245-.199c-.272-1.21-.935-1.597-2.759-1.597-2.032 0-2.269.709-2.269 1.24 0 .644.279.832 3.014 1.196 2.709.361 4.004.87 4.004 2.77 0 1.927-1.605 3.027-4.4 3.027z"/></svg>