<svg xmlns="http://www.w3.org/2000/svg" viewBox="0 0 24 24" width="20" height="20"><path fill="#3178C6" d="M1.125 0C.502 0 0 .502 0 1.125v21.75C0 23.498.502 24 1.125 24h21.75c.623 0 1.125-.502 1.125-1.125V1.125C24 .502 23.498 0 22.875 0zm17.363 9.75c.612 0 1.154.037 1.627.111a6.38 6.38 0 011.306.34v2.458a3.95 3.95 0 00-.643-.361 5.093 5.093 0 00-.717-.26 5.453 5.453 0 00-1.426-.2c-.3 0-.573.028-.819.086a2.1 2.1 0 00-.623.242c-.17.104-.3.229-.393.374a.888.888 0 00-.14.49c0 .196.053.373.156.529.104.156.252.304.443.444s.42.276.69.394.572.232.906.34c.459.15.882.315 1.27.492.388.178.722.392 1.002.644.28.252.5.548.658.889.157.34.236.742.236 1.204 0 .56-.12 1.044-.36 1.448-.24.404-.564.733-.973.986-.408.254-.882.438-1.42.554-.538.115-1.104.173-1.698.173-.645 0-1.244-.065-1.797-.195a6.68 6.68 0 01-1.443-.51v-2.58a5.06 5.06 0 001.86.922c.35.096.701.144 1.055.144.3 0 .568-.028.803-.083a1.83 1.83 0 00.585-.23.997.997 0 00.36-.352.88.88 0 00.12-.449.8.8 0 00-.177-.522 1.87 1.87 0 00-.497-.425 5.24 5.24 0 00-.762-.387 21.14 21.14 0 00-.991-.389c-.437-.15-.846-.322-1.226-.514a4.17 4.17 0 01-.973-.659 2.86 2.86 0 01-.646-.905c-.156-.35-.234-.758-.234-1.224 0-.538.12-1.01.36-1.414.24-.404.562-.736.966-.997a4.41 4.41 0 011.397-.587 6.37 6.37 0 011.637-.207zm-11.17.06h7.5v2.137H14.4V19.5h-2.637V11.947H8.318V9.81z"/></svg>